<?xml version="1.0" encoding="UTF-8"?>
<svg width="128px" height="128px" viewBox="0 0 128 128" version="1.1" xmlns="http://www.w3.org/2000/svg" xmlns:xlink="http://www.w3.org/1999/xlink">
    <!-- Generator: Sketch 43.2 (39069) - http://www.bohemiancoding.com/sketch -->
    <title>Resource Peek 2</title>
    <desc>Created with Sketch.</desc>
    <defs></defs>
    <g id="Page-1" stroke="none" stroke-width="1" fill="none" fill-rule="evenodd">
        <g id="Resource-Peek-2">
            <path d="M69.137931,50 L111.999962,50 C115.305363,50 118,47.3140575 118,44.0007795 L118,15.9992205 C118,12.6866239 115.313691,10 111.999962,10 L64.0000383,10 C60.6946371,10 58,12.6859425 58,15.9992205 L58,43.4975307 L58,66.0057181 C58,67.6594313 58.6787853,67.8420722 59.5161094,66.4136958 L69.137931,50 Z" id="Combined-Shape" fill="#E23238"></path>
            <path d="M58.862069,78 L16.0000383,78 C12.6946371,78 10,80.6859425 10,83.9992205 L10,112.00078 C10,115.313376 12.6863086,118 16.0000383,118 L63.9999617,118 C67.3053629,118 70,115.314058 70,112.00078 L70,84.5024693 L70,61.9942819 C70,60.3405687 69.3212147,60.1579278 68.4838906,61.5863042 L58.862069,78 Z" id="Combined-Shape" fill="#B52F32"></path>
            <path d="M73.0297221,20.0002202 C73.128904,20.357647 73.1852008,20.7155112 73.1852008,21.0617202 C73.1852008,21.3838002 73.1363608,21.6951001 73.0296606,22.0053002 C71.3341205,22.0053002 70.3630405,22.7425201 70.3630405,24.42024 C70.3630405,25.29276 70.6164806,26.0467001 70.6164806,26.9645402 C70.6164806,28.4840803 69.8944404,29.1887403 68.8470204,29.5601004 C69.9177604,29.9569803 70.6140602,30.6953002 70.6140602,32.2047202 C70.6140602,33.1062801 70.3619401,33.85142 70.3619401,34.7109602 C70.3619401,36.3937403 71.33258,37.1197403 73.02966,37.1197403 C73.14076,37.4849404 73.1920201,37.8299003 73.1920201,38.1629803 C73.1920201,38.5061804 73.1392202,38.8172604 73.0296603,39.1283404 C68.9623002,39.1283404 67.7388802,37.8206603 67.7388802,35.5163802 C67.7388802,34.6086603 67.9291801,33.5572805 67.9291801,32.7001603 C67.9291801,31.1139602 67.27666,30.6898002 66.13574,30.6156606 C66.04884,30.2522206 66,29.8861406 66,29.5253407 C66,29.1984207 66.0398199,28.8765606 66.13574,28.5525007 C67.4264799,28.5525007 67.98858,28.1543005 67.98858,26.7159404 C67.98858,25.8234003 67.7683601,24.7676201 67.7683601,23.7439602 C67.7683601,21.2782325 69.0172674,20.0002538 73.0297221,20.0002202 L73.0297221,20.0002202 Z M73.0297221,20.0002202 C73.0297017,20.0001468 73.0296814,20.0000734 73.029661,20 L73.0298802,20.0002202 L73.0297221,20.0002202 Z M81.9837221,20.0002202 C77.9712674,20.0002538 76.7223601,21.2782325 76.7223601,23.7439602 C76.7223601,24.7676201 76.94258,25.8234003 76.94258,26.7159404 C76.94258,28.1543005 76.3804799,28.5525007 75.08974,28.5525007 C74.9938199,28.8765606 74.954,29.1984207 74.954,29.5253407 C74.954,29.8861406 75.00284,30.2522206 75.08974,30.6156606 C76.23066,30.6898002 76.8831801,31.1139602 76.8831801,32.7001603 C76.8831801,33.5572805 76.6928802,34.6086603 76.6928802,35.5163802 C76.6928802,37.8206603 77.9163002,39.1283404 81.9836603,39.1283404 C82.0932202,38.8172604 82.1460201,38.5061804 82.1460201,38.1629803 C82.1460201,37.8299003 82.09476,37.4849404 81.98366,37.1197403 C80.28658,37.1197403 79.3159401,36.3937403 79.3159401,34.7109602 C79.3159401,33.85142 79.5680602,33.1062801 79.5680602,32.2047202 C79.5680602,30.6953002 78.8717604,29.9569803 77.8010204,29.5601004 C78.8484404,29.1887403 79.5704806,28.4840803 79.5704806,26.9645402 C79.5704806,26.0467001 79.3170405,25.29276 79.3170405,24.42024 C79.3170405,22.7425201 80.2881205,22.0053002 81.9836606,22.0053002 C82.0903608,21.6951001 82.1392008,21.3838002 82.1392008,21.0617202 C82.1392008,20.7155112 82.082904,20.357647 81.9837221,20.0002202 L81.9837221,20.0002202 Z M81.9837221,20.0002202 C81.9837017,20.0001468 81.9836814,20.0000734 81.983661,20 L81.9838802,20.0002202 L81.9837221,20.0002202 Z M93.5314602,20.0002202 C93.4322403,20.3579404 93.3757001,20.7158805 93.3757001,21.0621606 C93.3757001,21.3842406 93.4245402,21.6955405 93.5314602,22.0057406 C95.2270003,22.0057403 96.1978604,22.7429602 96.1978604,24.4206801 C96.1978604,25.2932001 95.9446406,26.0471402 95.9446406,26.9649803 C95.9446406,28.4845204 96.6664605,29.1891804 97.7141004,29.5605405 C96.6431406,29.9574203 95.9470606,30.6957403 95.9470606,32.2051603 C95.9470606,33.1067202 96.1989605,33.8518601 96.1989605,34.7114003 C96.1989605,36.3941804 95.2283206,37.1201804 93.5312406,37.1201804 C93.4201406,37.4853802 93.3688805,37.83034 93.3688805,38.16342 C93.3688805,38.5066201 93.4216804,38.8177001 93.5312403,39.1287801 C97.5988199,39.1287801 98.82224,37.8211001 98.82224,35.5168199 C98.82224,34.6091001 98.6317199,33.5577202 98.6317199,32.7006001 C98.6317199,31.1143999 99.28424,30.69024 100.42538,30.6161001 C100.51206,30.25266 100.56112,29.88658 100.56112,29.5257801 C100.56112,29.1988601 100.5213,28.877 100.42538,28.5529401 C99.1346402,28.5529401 98.5725402,28.15474 98.5725402,26.7163799 C98.5725402,25.8238397 98.7925402,24.7680596 98.7925402,23.7443996 C98.7925402,21.2786396 97.5436001,20.0006596 93.53124,20.0006596 L93.5314602,20.0002202 Z M102.48546,20.0002202 C102.38624,20.3579404 102.3297,20.7158805 102.3297,21.0621606 C102.3297,21.3842406 102.37854,21.6955405 102.48546,22.0057406 C104.181,22.0057403 105.15186,22.7429602 105.15186,24.4206801 C105.15186,25.2932001 104.898641,26.0471402 104.898641,26.9649803 C104.898641,28.4845204 105.620461,29.1891804 106.6681,29.5605405 C105.597141,29.9574203 104.901061,30.6957403 104.901061,32.2051603 C104.901061,33.1067202 105.152961,33.8518601 105.152961,34.7114003 C105.152961,36.3941804 104.182321,37.1201804 102.485241,37.1201804 C102.374141,37.4853802 102.322881,37.83034 102.322881,38.16342 C102.322881,38.5066201 102.37568,38.8177001 102.48524,39.1287801 C106.55282,39.1287801 107.77624,37.8211001 107.77624,35.5168199 C107.77624,34.6091001 107.58572,33.5577202 107.58572,32.7006001 C107.58572,31.1143999 108.23824,30.69024 109.37938,30.6161001 C109.46606,30.25266 109.51512,29.88658 109.51512,29.5257801 C109.51512,29.1988601 109.4753,28.877 109.37938,28.5529401 C108.08864,28.5529401 107.52654,28.15474 107.52654,26.7163799 C107.52654,25.8238397 107.74654,24.7680596 107.74654,23.7443996 C107.74654,21.2786396 106.4976,20.0006596 102.48524,20.0006596 L102.48546,20.0002202 Z" id="{{-}}" fill="#FFFFFF"></path>
            <path d="M29.3242188,106 C29.1992181,105.710936 29.0917973,105.406252 29.0019531,105.085938 C28.9121089,104.765623 28.8476564,104.437502 28.8085938,104.101562 C28.4570295,104.718753 27.9941435,105.230467 27.4199219,105.636719 C26.8457003,106.042971 26.1601602,106.246094 25.3632812,106.246094 C24.0351496,106.246094 23.0117223,105.9043 22.2929688,105.220703 C21.5742152,104.537106 21.2148438,103.605475 21.2148438,102.425781 C21.2148438,101.183588 21.6933546,100.220707 22.6503906,99.5371094 C23.6074267,98.8535122 25.0038971,98.5117188 26.8398438,98.5117188 L28.75,98.5117188 L28.75,97.5039062 C28.75,96.8945282 28.5898454,96.4218767 28.2695312,96.0859375 C27.9492171,95.7499983 27.4765656,95.5820312 26.8515625,95.5820312 C26.2968722,95.5820312 25.8691421,95.7167955 25.5683594,95.9863281 C25.2675766,96.2558607 25.1171875,96.6289039 25.1171875,97.1054688 L21.8125,97.09375 L21.8007812,97.0234375 C21.7460935,95.9531196 22.2109326,95.0293008 23.1953125,94.2519531 C24.1796924,93.4746055 25.4726482,93.0859375 27.0742188,93.0859375 C28.5898513,93.0859375 29.8203078,93.4706993 30.765625,94.2402344 C31.7109422,95.0097695 32.1835938,96.1054616 32.1835938,97.5273438 L32.1835938,102.765625 C32.1835938,103.359378 32.2285152,103.917966 32.3183594,104.441406 C32.4082036,104.964846 32.5507803,105.484372 32.7460938,106 L29.3242188,106 Z M26.1953125,103.714844 C26.796878,103.714844 27.3320289,103.566408 27.8007812,103.269531 C28.2695336,102.972655 28.5859367,102.628908 28.75,102.238281 L28.75,100.445312 L26.8398438,100.445312 C26.1132776,100.445312 25.5625019,100.626951 25.1875,100.990234 C24.8124981,101.353517 24.625,101.792966 24.625,102.308594 C24.625,102.730471 24.7656236,103.070311 25.046875,103.328125 C25.3281264,103.585939 25.7109351,103.714844 26.1953125,103.714844 Z M46.2109375,100.011719 C46.2109375,101.902353 45.7890667,103.414057 44.9453125,104.546875 C44.1015583,105.679693 42.8828205,106.246094 41.2890625,106.246094 C40.5546838,106.246094 39.9121121,106.091798 39.3613281,105.783203 C38.8105441,105.474608 38.3437519,105.02344 37.9609375,104.429688 L37.703125,106 L34.7734375,106 L34.7734375,87.71875 L38.1835938,87.71875 L38.1835938,94.6679688 C38.5507831,94.1601537 38.9902318,93.7695326 39.5019531,93.4960938 C40.0136744,93.2226549 40.6015592,93.0859375 41.265625,93.0859375 C42.875008,93.0859375 44.1015583,93.6933533 44.9453125,94.9082031 C45.7890667,96.1230529 46.2109375,97.7421774 46.2109375,99.765625 L46.2109375,100.011719 Z M42.8007812,99.765625 C42.8007812,98.5312438 42.6191424,97.552738 42.2558594,96.8300781 C41.8925763,96.1074183 41.2734419,95.7460938 40.3984375,95.7460938 C39.8671848,95.7460938 39.4179706,95.8574208 39.0507812,96.0800781 C38.6835919,96.3027355 38.3945323,96.6210917 38.1835938,97.0351562 L38.1835938,102.402344 C38.3945323,102.785158 38.685545,103.078124 39.0566406,103.28125 C39.4277362,103.484376 39.8828098,103.585938 40.421875,103.585938 C41.3046919,103.585938 41.9218732,103.275394 42.2734375,102.654297 C42.6250018,102.0332 42.8007812,101.152349 42.8007812,100.011719 L42.8007812,99.765625 Z M53.640625,103.621094 C54.250003,103.621094 54.7382794,103.443361 55.1054688,103.087891 C55.4726581,102.73242 55.65625,102.257815 55.65625,101.664062 L58.7617188,101.664062 L58.796875,101.734375 C58.8281252,103.015631 58.3457081,104.087886 57.3496094,104.951172 C56.3535106,105.814457 55.1171949,106.246094 53.640625,106.246094 C51.7499905,106.246094 50.2929739,105.648443 49.2695313,104.453125 C48.2460886,103.257807 47.734375,101.722666 47.734375,99.8476562 L47.734375,99.4960938 C47.734375,97.6288969 48.2441355,96.093756 49.2636719,94.890625 C50.2832082,93.687494 51.7382718,93.0859375 53.6289063,93.0859375 C55.1914141,93.0859375 56.4511671,93.5312455 57.4082031,94.421875 C58.3652392,95.3125045 58.8281252,96.4843677 58.796875,97.9375 L58.7734375,98.0078125 L55.65625,98.0078125 C55.65625,97.3515592 55.4765643,96.8066428 55.1171875,96.3730469 C54.7578107,95.939451 54.2617219,95.7226562 53.6289063,95.7226562 C52.7226517,95.7226562 52.0839862,96.0742152 51.7128906,96.7773438 C51.341795,97.4804723 51.15625,98.3867132 51.15625,99.4960938 L51.15625,99.8476562 C51.15625,100.980474 51.341795,101.892575 51.7128906,102.583984 C52.0839862,103.275394 52.7265579,103.621094 53.640625,103.621094 Z" id="abc" fill="#FFFFFF"></path>
        </g>
    </g>
</svg>