<?xml version="1.0" encoding="UTF-8"?>
<svg width="128px" height="128px" viewBox="0 0 128 128" version="1.1" xmlns="http://www.w3.org/2000/svg" xmlns:xlink="http://www.w3.org/1999/xlink">
    <!-- Generator: Sketch 43.2 (39069) - http://www.bohemiancoding.com/sketch -->
    <title>PeekTranslate</title>
    <desc>Created with Sketch.</desc>
    <defs></defs>
    <g id="Page-1" stroke="none" stroke-width="1" fill="none" fill-rule="evenodd">
        <g id="PeekTranslate">
            <path d="M69.137931,50 L111.999962,50 C115.305363,50 118,47.3140575 118,44.0007795 L118,15.9992205 C118,12.6866239 115.313691,10 111.999962,10 L64.0000383,10 C60.6946371,10 58,12.6859425 58,15.9992205 L58,43.4975307 L58,66.0057181 C58,67.6594313 58.6787853,67.8420722 59.5161094,66.4136958 L69.137931,50 Z" id="Combined-Shape" fill="#E23238"></path>
            <path d="M58.862069,78 L16.0000383,78 C12.6946371,78 10,80.6859425 10,83.9992205 L10,112.00078 C10,115.313376 12.6863086,118 16.0000383,118 L63.9999617,118 C67.3053629,118 70,115.314058 70,112.00078 L70,84.5024693 L70,61.9942819 C70,60.3405687 69.3212147,60.1579278 68.4838906,61.5863042 L58.862069,78 Z" id="Combined-Shape" fill="#B52F32"></path>
            <path d="M29.109375,106.28125 C28.9843744,105.992186 28.8769536,105.687502 28.7871094,105.367188 C28.6972652,105.046873 28.6328127,104.718752 28.59375,104.382812 C28.2421857,105.000003 27.7792997,105.511717 27.2050781,105.917969 C26.6308565,106.324221 25.9453165,106.527344 25.1484375,106.527344 C23.8203059,106.527344 22.7968786,106.18555 22.078125,105.501953 C21.3593714,104.818356 21,103.886725 21,102.707031 C21,101.464838 21.4785108,100.501957 22.4355469,99.8183594 C23.3925829,99.1347622 24.7890533,98.7929688 26.625,98.7929688 L28.5351562,98.7929688 L28.5351562,97.7851562 C28.5351562,97.1757782 28.3750016,96.7031267 28.0546875,96.3671875 C27.7343734,96.0312483 27.2617219,95.8632812 26.6367188,95.8632812 C26.0820285,95.8632812 25.6542984,95.9980455 25.3535156,96.2675781 C25.0527329,96.5371107 24.9023438,96.9101539 24.9023438,97.3867188 L21.5976562,97.375 L21.5859375,97.3046875 C21.5312497,96.2343696 21.9960888,95.3105508 22.9804688,94.5332031 C23.9648487,93.7558555 25.2578045,93.3671875 26.859375,93.3671875 C28.3750076,93.3671875 29.605464,93.7519493 30.5507812,94.5214844 C31.4960985,95.2910195 31.96875,96.3867116 31.96875,97.8085938 L31.96875,103.046875 C31.96875,103.640628 32.0136714,104.199216 32.1035156,104.722656 C32.1933598,105.246096 32.3359365,105.765622 32.53125,106.28125 L29.109375,106.28125 Z M25.9804688,103.996094 C26.5820343,103.996094 27.1171852,103.847658 27.5859375,103.550781 C28.0546898,103.253905 28.3710929,102.910158 28.5351562,102.519531 L28.5351562,100.726562 L26.625,100.726562 C25.8984339,100.726562 25.3476581,100.908201 24.9726562,101.271484 C24.5976544,101.634767 24.4101562,102.074216 24.4101562,102.589844 C24.4101562,103.011721 24.5507798,103.351561 24.8320312,103.609375 C25.1132827,103.867189 25.4960913,103.996094 25.9804688,103.996094 Z M45.9960938,100.292969 C45.9960938,102.183603 45.574223,103.695307 44.7304688,104.828125 C43.8867145,105.960943 42.6679767,106.527344 41.0742188,106.527344 C40.3398401,106.527344 39.6972684,106.373048 39.1464844,106.064453 C38.5957004,105.755858 38.1289082,105.30469 37.7460938,104.710938 L37.4882812,106.28125 L34.5585938,106.28125 L34.5585938,88 L37.96875,88 L37.96875,94.9492188 C38.3359393,94.4414037 38.7753881,94.0507826 39.2871094,93.7773438 C39.7988307,93.5039049 40.3867154,93.3671875 41.0507812,93.3671875 C42.6601643,93.3671875 43.8867145,93.9746033 44.7304688,95.1894531 C45.574223,96.4043029 45.9960938,98.0234274 45.9960938,100.046875 L45.9960938,100.292969 Z M42.5859375,100.046875 C42.5859375,98.8124938 42.4042987,97.833988 42.0410156,97.1113281 C41.6777326,96.3886683 41.0585981,96.0273438 40.1835938,96.0273438 C39.6523411,96.0273438 39.2031268,96.1386708 38.8359375,96.3613281 C38.4687482,96.5839855 38.1796886,96.9023417 37.96875,97.3164062 L37.96875,102.683594 C38.1796886,103.066408 38.4707013,103.359374 38.8417969,103.5625 C39.2128925,103.765626 39.6679661,103.867188 40.2070312,103.867188 C41.0898482,103.867188 41.7070295,103.556644 42.0585938,102.935547 C42.410158,102.31445 42.5859375,101.433599 42.5859375,100.292969 L42.5859375,100.046875 Z M53.4257813,103.902344 C54.0351593,103.902344 54.5234357,103.724611 54.890625,103.369141 C55.2578143,103.01367 55.4414063,102.539065 55.4414063,101.945312 L58.546875,101.945312 L58.5820313,102.015625 C58.6132814,103.296881 58.1308644,104.369136 57.1347656,105.232422 C56.1386669,106.095707 54.9023511,106.527344 53.4257813,106.527344 C51.5351468,106.527344 50.0781301,105.929693 49.0546875,104.734375 C48.0312449,103.539057 47.5195313,102.003916 47.5195313,100.128906 L47.5195313,99.7773438 C47.5195313,97.9101469 48.0292918,96.375006 49.0488281,95.171875 C50.0683645,93.968744 51.523428,93.3671875 53.4140625,93.3671875 C54.9765703,93.3671875 56.2363233,93.8124955 57.1933594,94.703125 C58.1503954,95.5937545 58.6132814,96.7656177 58.5820313,98.21875 L58.5585938,98.2890625 L55.4414063,98.2890625 C55.4414063,97.6328092 55.2617205,97.0878928 54.9023438,96.6542969 C54.542967,96.220701 54.0468782,96.0039062 53.4140625,96.0039062 C52.507808,96.0039062 51.8691425,96.3554652 51.4980469,97.0585938 C51.1269513,97.7617223 50.9414063,98.6679632 50.9414063,99.7773438 L50.9414063,100.128906 C50.9414063,101.261724 51.1269513,102.173825 51.4980469,102.865234 C51.8691425,103.556644 52.5117142,103.902344 53.4257813,103.902344 Z" id="abc" fill="#FFFFFF"></path>
            <path d="M73.2929688,41.9335938 C71.7695236,41.5039041 70.6855501,40.8203172 70.0410156,39.8828125 C69.3964812,38.9453078 69.0742188,37.8086004 69.0742188,36.4726562 L69.0742188,34.09375 C69.0742188,33.3203086 68.9042986,32.7187521 68.5644531,32.2890625 C68.2246077,31.8593729 67.7031285,31.6445312 67,31.6445312 L67,29.2890625 C67.7031285,29.2890625 68.2246077,29.076174 68.5644531,28.6503906 C68.9042986,28.2246072 69.0742188,27.6171914 69.0742188,26.828125 L69.0742188,24.4492188 C69.0742188,23.1132746 69.3964812,21.9785203 70.0410156,21.0449219 C70.6855501,20.1113235 71.7695236,19.4296896 73.2929688,19 L73.9492188,20.8398438 C73.2851529,21.0820325 72.8164076,21.5136688 72.5429688,22.1347656 C72.2695299,22.7558625 72.1328125,23.5273391 72.1328125,24.4492188 L72.1328125,26.828125 C72.1328125,27.6406291 71.9589861,28.361325 71.6113281,28.9902344 C71.2636701,29.6191438 70.7382848,30.1093732 70.0351562,30.4609375 C70.7382848,30.8281268 71.2636701,31.3261687 71.6113281,31.9550781 C71.9589861,32.5839875 72.1328125,33.296871 72.1328125,34.09375 L72.1328125,36.4726562 C72.1328125,37.3945359 72.2695299,38.1660125 72.5429688,38.7871094 C72.8164076,39.4082062 73.2851529,39.8398425 73.9492188,40.0820312 L73.2929688,41.9335938 Z M81.2148438,41.9335938 C79.6913986,41.5039041 78.6074251,40.8203172 77.9628906,39.8828125 C77.3183562,38.9453078 76.9960938,37.8086004 76.9960938,36.4726562 L76.9960938,34.09375 C76.9960938,33.3203086 76.8261736,32.7187521 76.4863281,32.2890625 C76.1464827,31.8593729 75.6250035,31.6445312 74.921875,31.6445312 L74.921875,29.2890625 C75.6250035,29.2890625 76.1464827,29.076174 76.4863281,28.6503906 C76.8261736,28.2246072 76.9960938,27.6171914 76.9960938,26.828125 L76.9960938,24.4492188 C76.9960938,23.1132746 77.3183562,21.9785203 77.9628906,21.0449219 C78.6074251,20.1113235 79.6913986,19.4296896 81.2148438,19 L81.8710938,20.8398438 C81.2070279,21.0820325 80.7382826,21.5136688 80.4648438,22.1347656 C80.1914049,22.7558625 80.0546875,23.5273391 80.0546875,24.4492188 L80.0546875,26.828125 C80.0546875,27.6406291 79.8808611,28.361325 79.5332031,28.9902344 C79.1855451,29.6191438 78.6601598,30.1093732 77.9570312,30.4609375 C78.6601598,30.8281268 79.1855451,31.3261687 79.5332031,31.9550781 C79.8808611,32.5839875 80.0546875,33.296871 80.0546875,34.09375 L80.0546875,36.4726562 C80.0546875,37.3945359 80.1914049,38.1660125 80.4648438,38.7871094 C80.7382826,39.4082062 81.2070279,39.8398425 81.8710938,40.0820312 L81.2148438,41.9335938 Z M94.6328125,40.0820312 C95.2968783,39.8398425 95.7656236,39.4082062 96.0390625,38.7871094 C96.3125014,38.1660125 96.4492188,37.3945359 96.4492188,36.4726562 L96.4492188,34.09375 C96.4492188,33.2812459 96.6289045,32.5625031 96.9882812,31.9375 C97.347658,31.3124969 97.8945276,30.8242205 98.6289062,30.4726562 C97.8945276,30.121092 97.347658,29.6308625 96.9882812,29.0019531 C96.6289045,28.3730437 96.4492188,27.6484416 96.4492188,26.828125 L96.4492188,24.4492188 C96.4492188,23.5273391 96.3125014,22.7558625 96.0390625,22.1347656 C95.7656236,21.5136688 95.2968783,21.0820325 94.6328125,20.8398438 L95.2890625,19 C96.8046951,19.4296896 97.8867155,20.1113235 98.5351562,21.0449219 C99.183597,21.9785203 99.5078125,23.1132746 99.5078125,24.4492188 L99.5078125,26.828125 C99.5078125,27.6171914 99.6757796,28.2246072 100.011719,28.6503906 C100.347658,29.076174 100.874996,29.2890625 101.59375,29.2890625 L101.59375,31.6445312 C100.874996,31.6445312 100.347658,31.8593729 100.011719,32.2890625 C99.6757796,32.7187521 99.5078125,33.3203086 99.5078125,34.09375 L99.5078125,36.4726562 C99.5078125,37.8086004 99.183597,38.9453078 98.5351562,39.8828125 C97.8867155,40.8203172 96.8046951,41.5039041 95.2890625,41.9335938 L94.6328125,40.0820312 Z M102.554688,40.0820312 C103.218753,39.8398425 103.687499,39.4082062 103.960938,38.7871094 C104.234376,38.1660125 104.371094,37.3945359 104.371094,36.4726562 L104.371094,34.09375 C104.371094,33.2812459 104.550779,32.5625031 104.910156,31.9375 C105.269533,31.3124969 105.816403,30.8242205 106.550781,30.4726562 C105.816403,30.121092 105.269533,29.6308625 104.910156,29.0019531 C104.550779,28.3730437 104.371094,27.6484416 104.371094,26.828125 L104.371094,24.4492188 C104.371094,23.5273391 104.234376,22.7558625 103.960938,22.1347656 C103.687499,21.5136688 103.218753,21.0820325 102.554688,20.8398438 L103.210938,19 C104.72657,19.4296896 105.808591,20.1113235 106.457031,21.0449219 C107.105472,21.9785203 107.429688,23.1132746 107.429688,24.4492188 L107.429688,26.828125 C107.429688,27.6171914 107.597655,28.2246072 107.933594,28.6503906 C108.269533,29.076174 108.796871,29.2890625 109.515625,29.2890625 L109.515625,31.6445312 C108.796871,31.6445312 108.269533,31.8593729 107.933594,32.2890625 C107.597655,32.7187521 107.429688,33.3203086 107.429688,34.09375 L107.429688,36.4726562 C107.429688,37.8086004 107.105472,38.9453078 106.457031,39.8828125 C105.808591,40.8203172 104.72657,41.5039041 103.210938,41.9335938 L102.554688,40.0820312 Z" id="{{-}}" fill="#FFFFFF"></path>
        </g>
    </g>
</svg>